<?xml version="1.0" encoding="UTF-8"?>
<svg version="1.1" xmlns="http://www.w3.org/2000/svg" width="256" height="256">
<path d="M0 0 C0.99 0.33 1.98 0.66 3 1 C3.33 25.75 3.66 50.5 4 76 C4.33 60.16 4.66 44.32 5 28 C6.65 28 8.3 28 10 28 C10 45.16 10 62.32 10 80 C10.99 80 11.98 80 13 80 C13.33 74.06 13.66 68.12 14 62 C15.32 62 16.64 62 18 62 C18 73.55 18 85.1 18 97 C16.68 97 15.36 97 14 97 C13.67 94.03 13.34 91.06 13 88 C11.0243438 90.96348429 10.73623141 91.68020373 10.5859375 95.01171875 C10.52792969 96.14770508 10.52792969 96.14770508 10.46875 97.30664062 C10.42234375 98.48516602 10.42234375 98.48516602 10.375 99.6875 C10.31699219 100.88342773 10.31699219 100.88342773 10.2578125 102.10351562 C10.16367506 104.06863475 10.08075368 106.0342854 10 108 C8.35 108 6.7 108 5 108 C5 104.04 5 100.08 5 96 C4.34 96 3.68 96 3 96 C3 101.94 3 107.88 3 114 C1.35 114 -0.3 114 -2 114 C-2.33 109.71 -2.66 105.42 -3 101 C-3.66 102.98 -4.32 104.96 -5 107 C-5.33 107.33 -5.66 107.66 -6 108 C-5.68470253 109.33771312 -5.34809691 110.67044465 -5 112 C-4.90349316 113.34677698 -4.84637944 114.69682659 -4.82421875 116.046875 C-4.80037109 116.81 -4.77652344 117.573125 -4.75195312 118.359375 C-4.70941275 119.93723602 -4.67793201 121.51543893 -4.65820312 123.09375 C-4.44695801 128.9496612 -2.90356858 132.96127516 0 138 C2.16600229 141.93116134 3.09033893 145.56137616 2 150 C-2.39225777 156.05877358 -11.71472713 160.76137043 -19 162 C-21.33300933 162.03888349 -23.66709801 162.0448635 -26 162 C-25.7834375 162.95519531 -25.566875 163.91039062 -25.34375 164.89453125 C-22.48824574 177.92890892 -21.87746008 190.06322362 -26 203 C-27.921875 205.44140625 -27.921875 205.44140625 -30 207 C-30.99 207 -31.98 207 -33 207 C-32.97679687 208.14855469 -32.95359375 209.29710937 -32.9296875 210.48046875 C-32.91089704 212.04947254 -32.89270043 213.61848353 -32.875 215.1875 C-32.85824219 215.93708984 -32.84148437 216.68667969 -32.82421875 217.45898438 C-32.76391003 224.66587662 -33.86166307 230.60080993 -35 238 C-96.38 238 -157.76 238 -221 238 C-220.01 236.35 -219.02 234.7 -218 233 C-218 231.49942141 -218.05006468 229.99870638 -218.125 228.5 C-218 226 -218 226 -216 224 C-214.71351563 223.93941406 -213.42703125 223.87882813 -212.1015625 223.81640625 C-209.94933272 223.66082441 -209.94933272 223.66082441 -208 223 C-206.29026012 220.47988156 -205.37883679 218.72054869 -204.375 215.9375 C-203.80748753 214.56231743 -203.23328647 213.18987559 -202.65234375 211.8203125 C-202.37632324 211.1593457 -202.10030273 210.49837891 -201.81591797 209.81738281 C-199.09828063 203.76409367 -194.93908987 198.96954494 -189 196 C-180.9784055 193.24257689 -173.43512673 192.59619074 -165 193 C-164.96261719 192.30132812 -164.92523438 191.60265625 -164.88671875 190.8828125 C-164.82097656 189.97273437 -164.75523437 189.06265625 -164.6875 188.125 C-164.62949219 187.22007812 -164.57148438 186.31515625 -164.51171875 185.3828125 C-164 183 -164 183 -161 181 C-158.3125 181.375 -158.3125 181.375 -156 182 C-155.67 182.99 -155.34 183.98 -155 185 C-152.98491642 185.73323796 -152.98491642 185.73323796 -151 186 C-150.88785156 184.84628906 -150.77570313 183.69257813 -150.66015625 182.50390625 C-150.10286096 178.09303517 -148.94179009 174.1103595 -147.4375 169.9375 C-147.17501465 169.206521 -146.9125293 168.47554199 -146.64208984 167.72241211 C-142.95308382 157.80620119 -138.39124127 148.54595194 -131.4375 140.5 C-128.78574064 137.52879957 -128.78574064 137.52879957 -127.72265625 133.8359375 C-127.96260941 131.68442978 -127.96260941 131.68442978 -129 129 C-127.68 128.67 -126.36 128.34 -125 128 C-125.350625 127.113125 -125.70125 126.22625 -126.0625 125.3125 C-127.02117134 121.92519461 -127.03850183 120.30432401 -126 117 C-125 116 -125 116 -121.4375 115.9375 C-120.303125 115.958125 -119.16875 115.97875 -118 116 C-117.9175 114.88625 -117.835 113.7725 -117.75 112.625 C-116.96914466 106.34469203 -114.62767099 100.44150648 -111.125 95.1875 C-110.568125 94.1046875 -110.568125 94.1046875 -110 93 C-111.18341667 89.31272281 -113.00137154 86.11523353 -115 82.8125 C-115.7734375 81.52279297 -115.7734375 81.52279297 -116.5625 80.20703125 C-117.94687118 77.91540094 -117.94687118 77.91540094 -120 76 C-120 74.68 -120 73.36 -120 72 C-119.04480469 71.75765625 -118.08960937 71.5153125 -117.10546875 71.265625 C-115.79912843 70.92843926 -114.49316483 70.589792 -113.1875 70.25 C-112.50478027 70.07243164 -111.82206055 69.89486328 -111.11865234 69.71191406 C-107.00794241 68.6155963 -103.08312511 67.32649364 -99.125 65.75 C-93.19658848 63.50372223 -88.11267307 63.3647606 -81.9375 64.625 C-78.71218078 65.03674288 -76.47223474 64.34916275 -73.37890625 63.4921875 C-61.45732989 61.02565446 -48.69781367 63.65109316 -38 69 C-37.67 51.51 -37.34 34.02 -37 16 C-35.35 16 -33.7 16 -32 16 C-32 33.82 -32 51.64 -32 70 C-31.01 70 -30.02 70 -29 70 C-29 61.42 -29 52.84 -29 44 C-27.68 44 -26.36 44 -25 44 C-25 51.92 -25 59.84 -25 68 C-24.34 68 -23.68 68 -23 68 C-23 53.81 -23 39.62 -23 25 C-21.35 25 -19.7 25 -18 25 C-18 39.52 -18 54.04 -18 69 C-17.34 69 -16.68 69 -16 69 C-16 54.48 -16 39.96 -16 25 C-14.35 25 -12.7 25 -11 25 C-11 40.18 -11 55.36 -11 71 C-10.34 71 -9.68 71 -9 71 C-9 55.82 -9 40.64 -9 25 C-7.35 25 -5.7 25 -4 25 C-4 40.84 -4 56.68 -4 73 C-3.34 73 -2.68 73 -2 73 C-2 49.24 -2 25.48 -2 1 C-1.34 0.67 -0.68 0.34 0 0 Z " fill="#F18838" transform="translate(233,18)"/>
<path d="M0 0 C0.99 0.33 1.98 0.66 3 1 C3.33 25.75 3.66 50.5 4 76 C4.33 60.16 4.66 44.32 5 28 C6.65 28 8.3 28 10 28 C10 45.16 10 62.32 10 80 C10.99 80 11.98 80 13 80 C13.33 74.06 13.66 68.12 14 62 C15.32 62 16.64 62 18 62 C18 73.55 18 85.1 18 97 C16.68 97 15.36 97 14 97 C13.67 94.03 13.34 91.06 13 88 C11.0243438 90.96348429 10.73623141 91.68020373 10.5859375 95.01171875 C10.52792969 96.14770508 10.52792969 96.14770508 10.46875 97.30664062 C10.42234375 98.48516602 10.42234375 98.48516602 10.375 99.6875 C10.31699219 100.88342773 10.31699219 100.88342773 10.2578125 102.10351562 C10.16367506 104.06863475 10.08075368 106.0342854 10 108 C8.35 108 6.7 108 5 108 C5 104.04 5 100.08 5 96 C4.34 96 3.68 96 3 96 C3 101.94 3 107.88 3 114 C1.35 114 -0.3 114 -2 114 C-2.33 109.71 -2.66 105.42 -3 101 C-3.66 102.98 -4.32 104.96 -5 107 C-5.33 107.33 -5.66 107.66 -6 108 C-5.68470253 109.33771312 -5.34809691 110.67044465 -5 112 C-4.90349316 113.34677698 -4.84637944 114.69682659 -4.82421875 116.046875 C-4.80037109 116.81 -4.77652344 117.573125 -4.75195312 118.359375 C-4.70941275 119.93723602 -4.67793201 121.51543893 -4.65820312 123.09375 C-4.44695801 128.9496612 -2.90356858 132.96127516 0 138 C2.16600229 141.93116134 3.09033893 145.56137616 2 150 C-2.39225777 156.05877358 -11.71472713 160.76137043 -19 162 C-21.33300933 162.03888349 -23.66709801 162.0448635 -26 162 C-25.7834375 162.95519531 -25.566875 163.91039062 -25.34375 164.89453125 C-22.48824574 177.92890892 -21.87746008 190.06322362 -26 203 C-27.921875 205.44140625 -27.921875 205.44140625 -30 207 C-30.99 207 -31.98 207 -33 207 C-32.97679687 208.14855469 -32.95359375 209.29710937 -32.9296875 210.48046875 C-32.79960048 219.89754915 -33.1657232 228.73035118 -35 238 C-36.65 238 -38.3 238 -40 238 C-39.8570752 237.29141846 -39.71415039 236.58283691 -39.56689453 235.8527832 C-37.72642606 225.60000752 -37.77151092 215.57057847 -37.875 205.1875 C-37.88505693 203.41602072 -37.89417795 201.64453588 -37.90234375 199.87304688 C-37.92412614 195.58189079 -37.95850397 191.29100886 -38 187 C-36.35 187.33 -34.7 187.66 -33 188 C-33.04125 187.21625 -33.0825 186.4325 -33.125 185.625 C-33 183 -33 183 -31 181 C-30.0132427 173.97660981 -31.52114355 166.72455975 -32.66015625 159.80859375 C-32.82837891 158.41833984 -32.82837891 158.41833984 -33 157 C-31.24282429 155.24282429 -28.57870528 155.53365424 -26.1875 155.25 C-19.51481528 154.24836079 -12.65408784 152.85038709 -7 149 C-5.32124367 146.21376283 -5.32124367 146.21376283 -5 143 C-6.07379988 140.35801584 -6.07379988 140.35801584 -7.875 137.8125 C-11.43747582 131.37913509 -11.4830599 126.08613608 -11.04052734 118.9387207 C-10.72668707 112.98388288 -11.89271965 108.53962405 -14 103 C-14.309375 101.845 -14.61875 100.69 -14.9375 99.5 C-15.288125 98.675 -15.63875 97.85 -16 97 C-16.65355469 96.87496094 -17.30710938 96.74992187 -17.98046875 96.62109375 C-18.64691406 96.41613281 -19.31335938 96.21117188 -20 96 C-20.8359375 94.00390625 -20.8359375 94.00390625 -21.375 91.5625 C-22.02573973 89.12402855 -22.02573973 89.12402855 -23 87 C-25.85556194 85.35337818 -25.85556194 85.35337818 -29 85 C-29.78375 84.79375 -30.5675 84.5875 -31.375 84.375 C-32.179375 84.189375 -32.179375 84.189375 -33 84 C-33 83.01 -33 82.02 -33 81 C-33.99 81 -34.98 81 -36 81 C-36 79.35 -36 77.7 -36 76 C-38.13223444 75.27380421 -40.26698425 74.5606638 -42.41015625 73.8671875 C-43.99691873 73.33587337 -45.57219081 72.76606564 -47.12109375 72.1328125 C-57.02713564 68.42466848 -69.09312101 69.15816167 -79.4609375 70.54296875 C-82.49322811 70.93455595 -84.19321318 71.05254506 -87 70 C-87 69.67 -87 69.34 -87 69 C-92.53539636 68.66730994 -96.12132768 69.60062007 -101.125 71.9375 C-105.1018374 73.77798383 -108.65191685 75.35188949 -113 76 C-112.11837095 77.75719879 -111.21899991 79.50550143 -110.3125 81.25 C-109.56419922 82.71179688 -109.56419922 82.71179688 -108.80078125 84.203125 C-106.87324461 87.19686955 -104.87921762 88.93991244 -102 91 C-102.54269531 91.98097656 -103.08539063 92.96195312 -103.64453125 93.97265625 C-108.61370675 103.24474907 -111.55893365 111.552269 -113 122 C-115.31 122 -117.62 122 -120 122 C-119.649375 122.5775 -119.29875 123.155 -118.9375 123.75 C-117.84428637 126.37371272 -118.00943409 127.38850805 -119 130 C-119.33 130.33 -119.66 130.66 -120 131 C-120.061875 132.19625 -120.12375 133.3925 -120.1875 134.625 C-120.67558964 138.77740436 -122.24344629 140.67077813 -125.12109375 143.71484375 C-132.795406 153.04846676 -137.38090273 164.61551685 -141 176 C-141.58333333 177.625 -142.16666667 179.25 -142.75 180.875 C-143.7185921 183.7645429 -144.24660453 186.46954517 -144.5625 189.5 C-144.706875 190.655 -144.85125 191.81 -145 193 C-147.40545638 194.20272819 -148.94996953 194.10071472 -151.625 194.0625 C-152.44226563 194.05347656 -153.25953125 194.04445312 -154.1015625 194.03515625 C-155.04128906 194.01775391 -155.04128906 194.01775391 -156 194 C-155.505 197.465 -155.505 197.465 -155 201 C-155.86782104 200.97643433 -155.86782104 200.97643433 -156.75317383 200.95239258 C-174.09743827 199.74390791 -174.09743827 199.74390791 -189.5 206.078125 C-193.07972678 210.26193068 -195.22199085 214.91842099 -197.60546875 219.84960938 C-199.86965389 224.35811837 -201.87079097 226.94952897 -206 230 C-206.39764263 231.98821313 -206.73775349 233.98944339 -207 236 C-210.42094242 238.28062828 -211.68187222 238.21925007 -215.6875 238.125 C-216.68136719 238.10695313 -217.67523438 238.08890625 -218.69921875 238.0703125 C-219.45847656 238.04710937 -220.21773437 238.02390625 -221 238 C-220.2575 236.824375 -220.2575 236.824375 -219.5 235.625 C-217.80539306 232.65943786 -217.95959074 231.80818511 -218.125 228.5 C-218 226 -218 226 -216 224 C-214.71351563 223.93941406 -213.42703125 223.87882813 -212.1015625 223.81640625 C-209.94933272 223.66082441 -209.94933272 223.66082441 -208 223 C-206.29026012 220.47988156 -205.37883679 218.72054869 -204.375 215.9375 C-203.80748753 214.56231743 -203.23328647 213.18987559 -202.65234375 211.8203125 C-202.37632324 211.1593457 -202.10030273 210.49837891 -201.81591797 209.81738281 C-199.09828063 203.76409367 -194.93908987 198.96954494 -189 196 C-180.9784055 193.24257689 -173.43512673 192.59619074 -165 193 C-164.96261719 192.30132812 -164.92523438 191.60265625 -164.88671875 190.8828125 C-164.82097656 189.97273437 -164.75523437 189.06265625 -164.6875 188.125 C-164.62949219 187.22007812 -164.57148438 186.31515625 -164.51171875 185.3828125 C-164 183 -164 183 -161 181 C-158.3125 181.375 -158.3125 181.375 -156 182 C-155.67 182.99 -155.34 183.98 -155 185 C-152.98491642 185.73323796 -152.98491642 185.73323796 -151 186 C-150.88785156 184.84628906 -150.77570313 183.69257813 -150.66015625 182.50390625 C-150.10286096 178.09303517 -148.94179009 174.1103595 -147.4375 169.9375 C-147.17501465 169.206521 -146.9125293 168.47554199 -146.64208984 167.72241211 C-142.95308382 157.80620119 -138.39124127 148.54595194 -131.4375 140.5 C-128.78574064 137.52879957 -128.78574064 137.52879957 -127.72265625 133.8359375 C-127.96260941 131.68442978 -127.96260941 131.68442978 -129 129 C-127.68 128.67 -126.36 128.34 -125 128 C-125.350625 127.113125 -125.70125 126.22625 -126.0625 125.3125 C-127.02117134 121.92519461 -127.03850183 120.30432401 -126 117 C-125 116 -125 116 -121.4375 115.9375 C-120.303125 115.958125 -119.16875 115.97875 -118 116 C-117.9175 114.88625 -117.835 113.7725 -117.75 112.625 C-116.96914466 106.34469203 -114.62767099 100.44150648 -111.125 95.1875 C-110.568125 94.1046875 -110.568125 94.1046875 -110 93 C-111.18341667 89.31272281 -113.00137154 86.11523353 -115 82.8125 C-115.7734375 81.52279297 -115.7734375 81.52279297 -116.5625 80.20703125 C-117.94687118 77.91540094 -117.94687118 77.91540094 -120 76 C-120 74.68 -120 73.36 -120 72 C-119.04480469 71.75765625 -118.08960937 71.5153125 -117.10546875 71.265625 C-115.79912843 70.92843926 -114.49316483 70.589792 -113.1875 70.25 C-112.50478027 70.07243164 -111.82206055 69.89486328 -111.11865234 69.71191406 C-107.00794241 68.6155963 -103.08312511 67.32649364 -99.125 65.75 C-93.19658848 63.50372223 -88.11267307 63.3647606 -81.9375 64.625 C-78.71218078 65.03674288 -76.47223474 64.34916275 -73.37890625 63.4921875 C-61.45732989 61.02565446 -48.69781367 63.65109316 -38 69 C-37.67 51.51 -37.34 34.02 -37 16 C-35.35 16 -33.7 16 -32 16 C-32 33.82 -32 51.64 -32 70 C-31.01 70 -30.02 70 -29 70 C-29 61.42 -29 52.84 -29 44 C-27.68 44 -26.36 44 -25 44 C-25 51.92 -25 59.84 -25 68 C-24.34 68 -23.68 68 -23 68 C-23 53.81 -23 39.62 -23 25 C-21.35 25 -19.7 25 -18 25 C-18 39.52 -18 54.04 -18 69 C-17.34 69 -16.68 69 -16 69 C-16 54.48 -16 39.96 -16 25 C-14.35 25 -12.7 25 -11 25 C-11 40.18 -11 55.36 -11 71 C-10.34 71 -9.68 71 -9 71 C-9 55.82 -9 40.64 -9 25 C-7.35 25 -5.7 25 -4 25 C-4 40.84 -4 56.68 -4 73 C-3.34 73 -2.68 73 -2 73 C-2 49.24 -2 25.48 -2 1 C-1.34 0.67 -0.68 0.34 0 0 Z " fill="#885851" transform="translate(233,18)"/>
<path d="M0 0 C0.99 1.485 0.99 1.485 2 3 C-2.46583643 2.42745687 -6.44601961 1.24419579 -10.65625 -0.28125 C-16.15016611 -1.96605094 -21.60216818 -2.19194483 -27.3125 -2.1875 C-28.06217041 -2.18886963 -28.81184082 -2.19023926 -29.58422852 -2.19165039 C-34.98493792 -2.14421924 -39.76747931 -1.37697913 -45 0 C-45.99 -0.495 -45.99 -0.495 -47 -1 C-53.75455546 -1.63388905 -59.04762891 -1.51864408 -64.91015625 1.9765625 C-68.97902876 3.96916922 -73.54874512 4.37813351 -78 5 C-77.4225 5.804375 -76.845 6.60875 -76.25 7.4375 C-74.01503151 10.75441437 -72.51690708 14.24768583 -71.02734375 17.94921875 C-69.95306591 20.09368972 -68.7792469 21.41228676 -67 23 C-66.67 22.34 -66.34 21.68 -66 21 C-65.34 21.33 -64.68 21.66 -64 22 C-64.81404297 23.47146484 -64.81404297 23.47146484 -65.64453125 24.97265625 C-70.61370675 34.24474907 -73.55893365 42.552269 -75 53 C-77.31 53 -79.62 53 -82 53 C-81.649375 53.5775 -81.29875 54.155 -80.9375 54.75 C-79.84428637 57.37371272 -80.00943409 58.38850805 -81 61 C-81.33 61.33 -81.66 61.66 -82 62 C-82.0928125 63.794375 -82.0928125 63.794375 -82.1875 65.625 C-82.67558964 69.77740436 -84.24344629 71.67077813 -87.12109375 74.71484375 C-94.795406 84.04846676 -99.38090273 95.61551685 -103 107 C-103.58333333 108.625 -104.16666667 110.25 -104.75 111.875 C-105.7185921 114.7645429 -106.24660453 117.46954517 -106.5625 120.5 C-106.706875 121.655 -106.85125 122.81 -107 124 C-109.40545638 125.20272819 -110.94996953 125.10071472 -113.625 125.0625 C-114.44226563 125.05347656 -115.25953125 125.04445312 -116.1015625 125.03515625 C-117.04128906 125.01775391 -117.04128906 125.01775391 -118 125 C-117.505 128.465 -117.505 128.465 -117 132 C-117.86782104 131.97643433 -117.86782104 131.97643433 -118.75317383 131.95239258 C-136.09743827 130.74390791 -136.09743827 130.74390791 -151.5 137.078125 C-155.07972678 141.26193068 -157.22199085 145.91842099 -159.60546875 150.84960938 C-161.86965389 155.35811837 -163.87079097 157.94952897 -168 161 C-168.39764263 162.98821313 -168.73775349 164.98944339 -169 167 C-172.42094242 169.28062828 -173.68187222 169.21925007 -177.6875 169.125 C-178.68136719 169.10695313 -179.67523438 169.08890625 -180.69921875 169.0703125 C-181.45847656 169.04710937 -182.21773437 169.02390625 -183 169 C-182.2575 167.824375 -182.2575 167.824375 -181.5 166.625 C-179.80539306 163.65943786 -179.95959074 162.80818511 -180.125 159.5 C-180 157 -180 157 -178 155 C-176.71351563 154.93941406 -175.42703125 154.87882813 -174.1015625 154.81640625 C-171.94933272 154.66082441 -171.94933272 154.66082441 -170 154 C-168.29026012 151.47988156 -167.37883679 149.72054869 -166.375 146.9375 C-165.80748753 145.56231743 -165.23328647 144.18987559 -164.65234375 142.8203125 C-164.37632324 142.1593457 -164.10030273 141.49837891 -163.81591797 140.81738281 C-161.09828063 134.76409367 -156.93908987 129.96954494 -151 127 C-142.9784055 124.24257689 -135.43512673 123.59619074 -127 124 C-126.96261719 123.30132812 -126.92523438 122.60265625 -126.88671875 121.8828125 C-126.82097656 120.97273438 -126.75523438 120.06265625 -126.6875 119.125 C-126.60048828 117.76761719 -126.60048828 117.76761719 -126.51171875 116.3828125 C-126 114 -126 114 -123 112 C-120.3125 112.375 -120.3125 112.375 -118 113 C-117.67 113.99 -117.34 114.98 -117 116 C-114.98491642 116.73323796 -114.98491642 116.73323796 -113 117 C-112.83177734 115.26943359 -112.83177734 115.26943359 -112.66015625 113.50390625 C-112.10286096 109.09303517 -110.94179009 105.1103595 -109.4375 100.9375 C-109.04377197 99.84103149 -109.04377197 99.84103149 -108.64208984 98.72241211 C-104.95308382 88.80620119 -100.39124127 79.54595194 -93.4375 71.5 C-90.78574064 68.52879957 -90.78574064 68.52879957 -89.72265625 64.8359375 C-89.96260941 62.68442978 -89.96260941 62.68442978 -91 60 C-89.68 59.67 -88.36 59.34 -87 59 C-87.350625 58.113125 -87.70125 57.22625 -88.0625 56.3125 C-89.02117134 52.92519461 -89.03850183 51.30432401 -88 48 C-87 47 -87 47 -83.4375 46.9375 C-82.303125 46.958125 -81.16875 46.97875 -80 47 C-79.9175 45.88625 -79.835 44.7725 -79.75 43.625 C-78.96914466 37.34469203 -76.62767099 31.44150648 -73.125 26.1875 C-72.568125 25.1046875 -72.568125 25.1046875 -72 24 C-73.18341667 20.31272281 -75.00137154 17.11523353 -77 13.8125 C-77.515625 12.95269531 -78.03125 12.09289062 -78.5625 11.20703125 C-79.94687118 8.91540094 -79.94687118 8.91540094 -82 7 C-82 5.68 -82 4.36 -82 3 C-81.04480469 2.75765625 -80.08960937 2.5153125 -79.10546875 2.265625 C-77.79912843 1.92843926 -76.49316483 1.589792 -75.1875 1.25 C-74.50478027 1.07243164 -73.82206055 0.89486328 -73.11865234 0.71191406 C-69.00794241 -0.3844037 -65.08312511 -1.67350636 -61.125 -3.25 C-55.19658848 -5.49627777 -50.11267307 -5.6352394 -43.9375 -4.375 C-40.71218078 -3.96325712 -38.47223474 -4.65083725 -35.37890625 -5.5078125 C-23.95207315 -7.87198486 -10.0739429 -5.87042716 0 0 Z " fill="#A9867F" transform="translate(195,87)"/>
<path d="M0 0 C1.65 0 3.3 0 5 0 C5 17.82 5 35.64 5 54 C5.99 54 6.98 54 8 54 C8 45.42 8 36.84 8 28 C9.32 28 10.64 28 12 28 C12 35.92 12 43.84 12 52 C12.66 52 13.32 52 14 52 C14 37.81 14 23.62 14 9 C15.65 9 17.3 9 19 9 C19 23.52 19 38.04 19 53 C19.66 53 20.32 53 21 53 C21 38.48 21 23.96 21 9 C22.65 9 24.3 9 26 9 C26 24.18 26 39.36 26 55 C25.67 55 25.34 55 25 55 C24.67 64.57 24.34 74.14 24 84 C22.515 82.02 22.515 82.02 21 80 C20.31292969 79.67 19.62585938 79.34 18.91796875 79 C16.43009186 77.70285848 16.21679468 76.6028376 15.3125 74 C14.08269493 71.25160973 13.5510224 70.23683458 10.74609375 69.03125 C8.49060069 68.55120766 6.29665423 68.19629523 4 68 C4 67.01 4 66.02 4 65 C3.01 65 2.02 65 1 65 C1 63.35 1 61.7 1 60 C-1.13223444 59.27380421 -3.26698425 58.5606638 -5.41015625 57.8671875 C-6.99691873 57.33587337 -8.57219081 56.76606564 -10.12109375 56.1328125 C-20.02713564 52.42466848 -32.09312101 53.15816167 -42.4609375 54.54296875 C-45.49322811 54.93455595 -47.19321318 55.05254506 -50 54 C-50 53.67 -50 53.34 -50 53 C-55.53539636 52.66730994 -59.12132768 53.60062007 -64.125 55.9375 C-68.1018374 57.77798383 -71.65191685 59.35188949 -76 60 C-75.06915029 61.77433812 -74.13005387 63.54435149 -73.1875 65.3125 C-72.40439453 66.79169922 -72.40439453 66.79169922 -71.60546875 68.30078125 C-70.2280124 70.61665068 -69.00469409 72.23611001 -67 74 C-67.33 74.99 -67.66 75.98 -68 77 C-68.33 76.01 -68.66 75.02 -69 74 C-69.99 73.67 -70.98 73.34 -72 73 C-73.5703125 70.3828125 -73.5703125 70.3828125 -75.125 67.125 C-75.64320312 66.05507812 -76.16140625 64.98515625 -76.6953125 63.8828125 C-78 61 -78 61 -79 58 C-77.87980469 57.66226563 -76.75960937 57.32453125 -75.60546875 56.9765625 C-74.13273364 56.52629954 -72.66008169 56.07576447 -71.1875 55.625 C-70.08051758 55.29242188 -70.08051758 55.29242188 -68.95117188 54.953125 C-68.23896484 54.73398438 -67.52675781 54.51484375 -66.79296875 54.2890625 C-66.1383667 54.09006348 -65.48376465 53.89106445 -64.80932617 53.68603516 C-62.70644864 52.96584292 -62.70644864 52.96584292 -60 51 C-57.22265625 50.76953125 -57.22265625 50.76953125 -54.0625 50.8125 C-53.02222656 50.81894531 -51.98195312 50.82539062 -50.91015625 50.83203125 C-48 51 -48 51 -46.05859375 51.63671875 C-42.84114128 52.20450448 -40.11224705 50.89614598 -37 50 C-34.24295097 49.78980913 -31.62649669 49.66663137 -28.875 49.6875 C-28.13652832 49.69023926 -27.39805664 49.69297852 -26.63720703 49.69580078 C-19.83181821 49.82359461 -13.53153482 51.10150055 -7 53 C-4.69 53.66 -2.38 54.32 0 55 C0 36.85 0 18.7 0 0 Z " fill="#C4ACA8" transform="translate(196,34)"/>
<path d="M0 0 C0.99 0.33 1.98 0.66 3 1 C3.33 25.75 3.66 50.5 4 76 C4.33 60.16 4.66 44.32 5 28 C6.65 28 8.3 28 10 28 C10 45.16 10 62.32 10 80 C10.99 80 11.98 80 13 80 C13.495 71.09 13.495 71.09 14 62 C15.32 62 16.64 62 18 62 C18 73.55 18 85.1 18 97 C16.68 97 15.36 97 14 97 C13.67 94.03 13.34 91.06 13 88 C11.0243438 90.96348429 10.73623141 91.68020373 10.5859375 95.01171875 C10.52792969 96.14770508 10.52792969 96.14770508 10.46875 97.30664062 C10.4378125 98.09232422 10.406875 98.87800781 10.375 99.6875 C10.31699219 100.88342773 10.31699219 100.88342773 10.2578125 102.10351562 C10.16367506 104.06863475 10.08075368 106.0342854 10 108 C8.35 108 6.7 108 5 108 C5 104.04 5 100.08 5 96 C4.34 96 3.68 96 3 96 C3 101.94 3 107.88 3 114 C2.34 114 1.68 114 1 114 C1 77.04 1 40.08 1 2 C0.34 2 -0.32 2 -1 2 C-1 25.76 -1 49.52 -1 74 C-1.33 74 -1.66 74 -2 74 C-2 49.91 -2 25.82 -2 1 C-1.34 0.67 -0.68 0.34 0 0 Z " fill="#DBCDCB" transform="translate(233,18)"/>
<path d="M0 0 C0.99 1.485 0.99 1.485 2 3 C-2.46583643 2.42745687 -6.44601961 1.24419579 -10.65625 -0.28125 C-16.15016611 -1.96605094 -21.60216818 -2.19194483 -27.3125 -2.1875 C-28.06217041 -2.18886963 -28.81184082 -2.19023926 -29.58422852 -2.19165039 C-34.98493792 -2.14421924 -39.76747931 -1.37697913 -45 0 C-45.99 -0.495 -45.99 -0.495 -47 -1 C-53.75455546 -1.63388905 -59.04762891 -1.51864408 -64.91015625 1.9765625 C-68.97902876 3.96916922 -73.54874512 4.37813351 -78 5 C-77.4225 5.804375 -76.845 6.60875 -76.25 7.4375 C-73.97425206 10.81077178 -72.45448629 14.38294086 -70.9296875 18.14453125 C-70.14242792 20.17850537 -70.14242792 20.17850537 -68 21 C-68.60940496 23.7803862 -69.44584858 26.09722206 -70.77734375 28.609375 C-71.12603516 29.28226563 -71.47472656 29.95515625 -71.83398438 30.6484375 C-72.56238803 32.03562747 -73.29409541 33.42108832 -74.02929688 34.8046875 C-76.44326272 39.48146848 -77.89713142 43.84943049 -79 49 C-82.465 49.495 -82.465 49.495 -86 50 C-85.01 54.455 -85.01 54.455 -84 59 C-84.99 59.66 -85.98 60.32 -87 61 C-86.896875 61.969375 -86.79375 62.93875 -86.6875 63.9375 C-86.52554882 67.89720634 -88.05387173 69.79223667 -90.4375 72.875 C-101.38344839 87.0562995 -107.85176665 103.69318459 -112 121 C-116.1263531 120.54151632 -118.25990785 120.15110598 -121 117 C-121.66 117 -122.32 117 -123 117 C-123.33 119.97 -123.66 122.94 -124 126 C-124.88300781 126.03738281 -125.76601562 126.07476562 -126.67578125 126.11328125 C-138.01703555 126.73455297 -148.63608604 127.5994022 -157 136 C-160.76031825 140.46110483 -163.05169762 144.64406736 -164.4375 150.3125 C-165.39287388 153.99097548 -166.19197979 155.6705747 -169.5 157.625 C-173 159 -173 159 -176 159 C-175.4121875 160.36125 -175.4121875 160.36125 -174.8125 161.75 C-174 165 -174 165 -175 167.375 C-177.71968286 169.58474232 -179.59195514 169.30293732 -183 169 C-182.2575 167.824375 -182.2575 167.824375 -181.5 166.625 C-179.80539306 163.65943786 -179.95959074 162.80818511 -180.125 159.5 C-180 157 -180 157 -178 155 C-176.71351563 154.93941406 -175.42703125 154.87882813 -174.1015625 154.81640625 C-171.94933272 154.66082441 -171.94933272 154.66082441 -170 154 C-168.29026012 151.47988156 -167.37883679 149.72054869 -166.375 146.9375 C-165.80748753 145.56231743 -165.23328647 144.18987559 -164.65234375 142.8203125 C-164.37632324 142.1593457 -164.10030273 141.49837891 -163.81591797 140.81738281 C-161.09828063 134.76409367 -156.93908987 129.96954494 -151 127 C-142.9784055 124.24257689 -135.43512673 123.59619074 -127 124 C-126.96261719 123.30132812 -126.92523438 122.60265625 -126.88671875 121.8828125 C-126.82097656 120.97273438 -126.75523438 120.06265625 -126.6875 119.125 C-126.60048828 117.76761719 -126.60048828 117.76761719 -126.51171875 116.3828125 C-126 114 -126 114 -123 112 C-120.3125 112.375 -120.3125 112.375 -118 113 C-117.67 113.99 -117.34 114.98 -117 116 C-114.98491642 116.73323796 -114.98491642 116.73323796 -113 117 C-112.83177734 115.26943359 -112.83177734 115.26943359 -112.66015625 113.50390625 C-112.10286096 109.09303517 -110.94179009 105.1103595 -109.4375 100.9375 C-109.04377197 99.84103149 -109.04377197 99.84103149 -108.64208984 98.72241211 C-104.95308382 88.80620119 -100.39124127 79.54595194 -93.4375 71.5 C-90.78574064 68.52879957 -90.78574064 68.52879957 -89.72265625 64.8359375 C-89.96260941 62.68442978 -89.96260941 62.68442978 -91 60 C-89.68 59.67 -88.36 59.34 -87 59 C-87.350625 58.113125 -87.70125 57.22625 -88.0625 56.3125 C-89.02117134 52.92519461 -89.03850183 51.30432401 -88 48 C-87 47 -87 47 -83.4375 46.9375 C-82.303125 46.958125 -81.16875 46.97875 -80 47 C-79.9175 45.88625 -79.835 44.7725 -79.75 43.625 C-78.96914466 37.34469203 -76.62767099 31.44150648 -73.125 26.1875 C-72.568125 25.1046875 -72.568125 25.1046875 -72 24 C-73.18341667 20.31272281 -75.00137154 17.11523353 -77 13.8125 C-77.515625 12.95269531 -78.03125 12.09289062 -78.5625 11.20703125 C-79.94687118 8.91540094 -79.94687118 8.91540094 -82 7 C-82 5.68 -82 4.36 -82 3 C-81.04480469 2.75765625 -80.08960937 2.5153125 -79.10546875 2.265625 C-77.79912843 1.92843926 -76.49316483 1.589792 -75.1875 1.25 C-74.50478027 1.07243164 -73.82206055 0.89486328 -73.11865234 0.71191406 C-69.00794241 -0.3844037 -65.08312511 -1.67350636 -61.125 -3.25 C-55.19658848 -5.49627777 -50.11267307 -5.6352394 -43.9375 -4.375 C-40.71218078 -3.96325712 -38.47223474 -4.65083725 -35.37890625 -5.5078125 C-23.95207315 -7.87198486 -10.0739429 -5.87042716 0 0 Z " fill="#6D332A" transform="translate(195,87)"/>
<path d="M0 0 C0.33 0.66 0.66 1.32 1 2 C0.06421005 4.35981813 -0.93347808 6.69631264 -2 9 C-0.35 9 1.3 9 3 9 C3.50403768 10.29009643 4.00309926 11.58213789 4.5 12.875 C4.7784375 13.59429687 5.056875 14.31359375 5.34375 15.0546875 C6 17 6 17 6 19 C6.763125 18.938125 7.52625 18.87625 8.3125 18.8125 C11 19 11 19 12.8125 20.5 C13.204375 20.995 13.59625 21.49 14 22 C14.66 20.68 15.32 19.36 16 18 C17.32 18 18.64 18 20 18 C21.35439668 20.70879335 21.06501451 23.00933268 21 26 C25.016309 24.70904353 26.21984594 22.29426169 28.0703125 18.75390625 C29 17 29 17 31 14 C32.32 14.66 33.64 15.32 35 16 C35.02685412 18.31243792 35.04632841 20.6249627 35.0625 22.9375 C35.07410156 24.22527344 35.08570313 25.51304687 35.09765625 26.83984375 C35 30 35 30 34 31 C32.34261557 31.09346915 30.68125356 31.11744977 29.02124023 31.11352539 C27.96021591 31.11344986 26.89919159 31.11337433 25.80601501 31.11329651 C24.07479149 31.10555458 24.07479149 31.10555458 22.30859375 31.09765625 C21.13361832 31.0962413 19.95864288 31.09482635 18.74806213 31.09336853 C14.97784936 31.08774992 11.20769496 31.07519426 7.4375 31.0625 C4.88867273 31.0574874 2.33984453 31.05292408 -0.20898438 31.04882812 C-6.47267633 31.03777444 -12.73633399 31.02101821 -19 31 C-18.67 30.34 -18.34 29.68 -18 29 C-17.34 29 -16.68 29 -16 29 C-16.12375 28.113125 -16.2475 27.22625 -16.375 26.3125 C-16.25125 25.219375 -16.1275 24.12625 -16 23 C-14.53339478 21.83253239 -13.06571078 20.66637002 -11.59033203 19.51000977 C-8.7396905 16.80334445 -7.3508352 13.35034579 -5.75 9.8125 C-2.19616027 2.19616027 -2.19616027 2.19616027 0 0 Z " fill="#FDFAF1" transform="translate(42,225)"/>
<path d="M0 0 C1.65 0 3.3 0 5 0 C5 17.82 5 35.64 5 54 C5.99 54 6.98 54 8 54 C8 57.63 8 61.26 8 65 C7.34 64.67 6.68 64.34 6 64 C5.67 64.66 5.34 65.32 5 66 C5.99 66 6.98 66 8 66 C8 66.66 8 67.32 8 68 C6.68 68 5.36 68 4 68 C4 67.01 4 66.02 4 65 C3.01 65 2.02 65 1 65 C1 63.35 1 61.7 1 60 C-1.13223444 59.27380421 -3.26698425 58.5606638 -5.41015625 57.8671875 C-6.99691873 57.33587337 -8.57219081 56.76606564 -10.12109375 56.1328125 C-20.02713564 52.42466848 -32.09312101 53.15816167 -42.4609375 54.54296875 C-45.49322811 54.93455595 -47.19321318 55.05254506 -50 54 C-50 53.67 -50 53.34 -50 53 C-55.53539636 52.66730994 -59.12132768 53.60062007 -64.125 55.9375 C-68.1018374 57.77798383 -71.65191685 59.35188949 -76 60 C-75.06915029 61.77433812 -74.13005387 63.54435149 -73.1875 65.3125 C-72.40439453 66.79169922 -72.40439453 66.79169922 -71.60546875 68.30078125 C-70.2280124 70.61665068 -69.00469409 72.23611001 -67 74 C-67.33 74.99 -67.66 75.98 -68 77 C-68.33 76.01 -68.66 75.02 -69 74 C-69.99 73.67 -70.98 73.34 -72 73 C-73.5703125 70.3828125 -73.5703125 70.3828125 -75.125 67.125 C-75.64320312 66.05507812 -76.16140625 64.98515625 -76.6953125 63.8828125 C-78 61 -78 61 -79 58 C-77.87980469 57.66226563 -76.75960937 57.32453125 -75.60546875 56.9765625 C-74.13273364 56.52629954 -72.66008169 56.07576447 -71.1875 55.625 C-70.08051758 55.29242188 -70.08051758 55.29242188 -68.95117188 54.953125 C-68.23896484 54.73398438 -67.52675781 54.51484375 -66.79296875 54.2890625 C-66.1383667 54.09006348 -65.48376465 53.89106445 -64.80932617 53.68603516 C-62.70644864 52.96584292 -62.70644864 52.96584292 -60 51 C-57.22265625 50.76953125 -57.22265625 50.76953125 -54.0625 50.8125 C-53.02222656 50.81894531 -51.98195312 50.82539062 -50.91015625 50.83203125 C-48 51 -48 51 -46.05859375 51.63671875 C-42.84114128 52.20450448 -40.11224705 50.89614598 -37 50 C-34.24295097 49.78980913 -31.62649669 49.66663137 -28.875 49.6875 C-28.13652832 49.69023926 -27.39805664 49.69297852 -26.63720703 49.69580078 C-19.83181821 49.82359461 -13.53153482 51.10150055 -7 53 C-4.69 53.66 -2.38 54.32 0 55 C0 36.85 0 18.7 0 0 Z " fill="#B39087" transform="translate(196,34)"/>
<path d="M0 0 C0.66 0.33 1.32 0.66 2 1 C-4.847061 4.66362225 -11.05402911 7.38760834 -19 7 C-19 7.99 -19 8.98 -19 10 C-18.34 10 -17.68 10 -17 10 C-13.8129577 24.057133 -12.52088201 36.94426035 -17 51 C-18.921875 53.44140625 -18.921875 53.44140625 -21 55 C-21.99 55 -22.98 55 -24 55 C-23.96519531 56.72283203 -23.96519531 56.72283203 -23.9296875 58.48046875 C-23.79960048 67.89754915 -24.1657232 76.73035118 -26 86 C-27.65 86 -29.3 86 -31 86 C-30.8570752 85.29141846 -30.71415039 84.58283691 -30.56689453 83.8527832 C-28.72642606 73.60000752 -28.77151092 63.57057847 -28.875 53.1875 C-28.88505693 51.41602072 -28.89417795 49.64453588 -28.90234375 47.87304688 C-28.92412614 43.58189079 -28.95850397 39.29100886 -29 35 C-27.35 35.33 -25.7 35.66 -24 36 C-23.71125 35.21625 -23.4225 34.4325 -23.125 33.625 C-22 31 -22 31 -20 29 C-18.94893653 21.37978983 -20.68587768 13.48580391 -22 6 C-20.99839844 5.81824219 -19.99679688 5.63648438 -18.96484375 5.44921875 C-17.62231609 5.19573451 -16.27987257 4.94180432 -14.9375 4.6875 C-13.95233398 4.51057617 -13.95233398 4.51057617 -12.94726562 4.33007812 C-9.45758666 3.65964719 -6.36978809 2.80836762 -3.12890625 1.33203125 C-2.09636719 0.89246094 -1.06382812 0.45289063 0 0 Z " fill="#CDB9B6" transform="translate(224,170)"/>
<path d="M0 0 C0.66 0.99 1.32 1.98 2 3 C2.63550781 3.26039062 3.27101562 3.52078125 3.92578125 3.7890625 C7.0557968 5.61637854 7.75728525 8.1027863 9.1875 11.375 C9.69667969 12.51710938 10.20585937 13.65921875 10.73046875 14.8359375 C11.69947492 17.25099902 12.48120658 19.46228763 13 22 C13 19.04725901 12.56108169 17.50941597 11.5 14.8125 C11.2215625 14.09707031 10.943125 13.38164063 10.65625 12.64453125 C10.4396875 12.10183594 10.223125 11.55914062 10 11 C10.66 11 11.32 11 12 11 C15.80465358 18.04303314 16.51017282 24.54431234 16.49584961 32.40185547 C16.58748604 38.1768464 18.14169934 42.03509464 21 47 C23.16589463 50.93123388 24.09036537 54.56126853 23 59 C18.56725498 65.11462255 9.31462583 69.65445239 2 71 C0.41788427 71.06548492 -1.16670081 71.08578381 -2.75 71.0625 C-3.94882813 71.04896484 -3.94882813 71.04896484 -5.171875 71.03515625 C-5.77515625 71.02355469 -6.3784375 71.01195312 -7 71 C-7 70.01 -7 69.02 -7 68 C-5.85660156 67.72285156 -4.71320313 67.44570312 -3.53515625 67.16015625 C-2.04422535 66.79445622 -0.55334239 66.42856071 0.9375 66.0625 C1.69224609 65.88009766 2.44699219 65.69769531 3.22460938 65.50976562 C6.91279821 64.86160821 6.91279821 64.86160821 10 63 C9.13117188 63.27714844 8.26234375 63.55429688 7.3671875 63.83984375 C6.21476562 64.20207031 5.06234375 64.56429687 3.875 64.9375 C2.16957031 65.47697266 2.16957031 65.47697266 0.4296875 66.02734375 C-2.71432699 66.91898339 -5.76894393 67.53351014 -9 68 C-8.855625 68.75023437 -8.71125 69.50046875 -8.5625 70.2734375 C-5.42561799 87.56985634 -5.42561799 87.56985634 -8.12109375 91.73046875 C-9.5 93.125 -9.5 93.125 -12 95 C-11.125 91.125 -11.125 91.125 -10 90 C-9.33032485 82.85160713 -10.50125638 75.84531257 -11.66015625 68.80859375 C-11.82837891 67.41833984 -11.82837891 67.41833984 -12 66 C-10.24282429 64.24282429 -7.57870528 64.53365424 -5.1875 64.25 C1.48518472 63.24836079 8.34591216 61.85038709 14 58 C15.67875633 55.21376283 15.67875633 55.21376283 16 52 C14.92620012 49.35801584 14.92620012 49.35801584 13.125 46.8125 C9.56252418 40.37913509 9.5169401 35.08613608 9.95947266 27.9387207 C10.27331293 21.98388288 9.10728035 17.53962405 7 12 C6.5359375 10.2675 6.5359375 10.2675 6.0625 8.5 C5.2688216 5.8198774 5.2688216 5.8198774 2.875 5.125 C2.25625 5.08375 1.6375 5.0425 1 5 C0.67 3.35 0.34 1.7 0 0 Z " fill="#905E51" transform="translate(212,109)"/>
<path d="M0 0 C2.9655648 1.37686937 5.39134755 3.04351066 8 5 C9.31836295 5.69580267 10.64791086 6.37224433 12 7 C5.375 6.375 5.375 6.375 2 3 C2 5.97 2 8.94 2 12 C0.87722656 12.04898438 -0.24554688 12.09796875 -1.40234375 12.1484375 C-12.88043463 12.50680208 -12.88043463 12.50680208 -24 15 C-25.84425989 17.26816301 -25.84425989 17.26816301 -27 20 C-27.76828125 20.71414062 -28.5365625 21.42828125 -29.328125 22.1640625 C-32.99782648 26.05909653 -34.79131143 30.36751755 -36.9609375 35.20507812 C-39.04822222 39.65099457 -40.9824074 42.01765737 -45 45 C-45.39764263 46.98821313 -45.73775349 48.98944339 -46 51 C-49.22791555 53.1519437 -50.28400809 53.20086443 -54 53 C-53.649375 52.278125 -53.29875 51.55625 -52.9375 50.8125 C-51.89590983 47.6877295 -52.10903428 46.11838004 -53 43 C-51.71086513 42.32845067 -50.41859796 41.66291141 -49.125 41 C-48.40570313 40.62875 -47.68640625 40.2575 -46.9453125 39.875 C-45 39 -45 39 -43 39 C-42.95875 37.88625 -42.9175 36.7725 -42.875 35.625 C-41.88101193 27.83876014 -37.02163388 21.01734869 -30.92578125 16.24609375 C-23.47302916 11.42372475 -16.50101439 9.85513071 -7.6875 9.9375 C-6.43324219 9.94652344 -5.17898437 9.95554688 -3.88671875 9.96484375 C-2.93410156 9.97644531 -1.98148438 9.98804688 -1 10 C-1.01160156 9.36191406 -1.02320313 8.72382813 -1.03515625 8.06640625 C-1.04417969 7.24011719 -1.05320313 6.41382813 -1.0625 5.5625 C-1.07410156 4.73878906 -1.08570313 3.91507813 -1.09765625 3.06640625 C-1 1 -1 1 0 0 Z " fill="#71382F" transform="translate(72,203)"/>
<path d="M0 0 C0.66 0 1.32 0 2 0 C2 16.83 2 33.66 2 51 C3.32 51 4.64 51 6 51 C6.495 42.09 6.495 42.09 7 33 C8.32 33 9.64 33 11 33 C11 44.55 11 56.1 11 68 C9.68 68 8.36 68 7 68 C6.67 65.03 6.34 62.06 6 59 C5.01 59.99 4.02 60.98 3 62 C1.95550089 58.86650268 2.06576355 58.01031744 3 55 C2.34 55 1.68 55 1 55 C1 62.26 1 69.52 1 77 C0.67 77 0.34 77 0 77 C0 51.59 0 26.18 0 0 Z " fill="#86564F" transform="translate(240,47)"/>
<path d="M0 0 C0.66 0 1.32 0 2 0 C2 36.96 2 73.92 2 112 C1.67 112 1.34 112 1 112 C1 106.06 1 100.12 1 94 C-1.475 94.99 -1.475 94.99 -4 96 C-4.02917228 92.77085248 -4.04685663 89.54173917 -4.0625 86.3125 C-4.07087891 85.40048828 -4.07925781 84.48847656 -4.08789062 83.54882812 C-4.09111328 82.66259766 -4.09433594 81.77636719 -4.09765625 80.86328125 C-4.10289307 80.05157471 -4.10812988 79.23986816 -4.11352539 78.40356445 C-3.9929791 75.85135327 -3.559949 73.48973863 -3 71 C-2.34 71 -1.68 71 -1 71 C-0.67 47.57 -0.34 24.14 0 0 Z " fill="#85544D" transform="translate(232,20)"/>
<path d="M0 0 C0 3 0 3 -1.875 4.9375 C-2.57625 5.618125 -3.2775 6.29875 -4 7 C-4.33 7.70125 -4.66 8.4025 -5 9.125 C-6 11 -6 11 -7.875 11.875 C-10.94935407 13.50259921 -12.11147335 16.13674991 -14 19 C-14.99 19.33 -15.98 19.66 -17 20 C-17.33 20.66 -17.66 21.32 -18 22 C-22.25815795 17.38699555 -24.68528162 12.81912441 -27 7 C-25.9275 6.773125 -24.855 6.54625 -23.75 6.3125 C-19.9386981 5.38506064 -16.51966329 3.96557062 -12.9375 2.375 C-8.28933538 0.36609742 -5.01944543 -0.57039153 0 0 Z " fill="#6D3229" transform="translate(146,86)"/>
<path d="M0 0 C0.66 0 1.32 0 2 0 C2 20.46 2 40.92 2 62 C-1.08669204 58.91330796 -1.44855089 58.08072342 -2 54 C-2.66 54 -3.32 54 -4 54 C-4 55.32 -4 56.64 -4 58 C-4.66 58 -5.32 58 -6 58 C-6 45.46 -6 32.92 -6 20 C-5.34 20 -4.68 20 -4 20 C-3.67 27.26 -3.34 34.52 -3 42 C-2.34 42 -1.68 42 -1 42 C-0.67 28.14 -0.34 14.28 0 0 Z " fill="#84544C" transform="translate(211,44)"/>
<path d="M0 0 C0.66 0.33 1.32 0.66 2 1 C1.18595703 2.47146484 1.18595703 2.47146484 0.35546875 3.97265625 C-4.61370675 13.24474907 -7.55893365 21.552269 -9 32 C-11.31 32 -13.62 32 -16 32 C-15.649375 32.5775 -15.29875 33.155 -14.9375 33.75 C-13.84428637 36.37371272 -14.00943409 37.38850805 -15 40 C-15.33 40.33 -15.66 40.66 -16 41 C-16.0928125 42.794375 -16.0928125 42.794375 -16.1875 44.625 C-16.67444391 48.76765716 -18.22232015 50.66354069 -21.11328125 53.6875 C-23.7311963 56.89620747 -25.67509074 60.38950104 -27.6875 64 C-28.06777344 64.67675781 -28.44804688 65.35351562 -28.83984375 66.05078125 C-30.61502348 69.26985717 -32.24141273 72.47584641 -33.64453125 75.875 C-35 79 -35 79 -37 81 C-37.66 81 -38.32 81 -39 81 C-37.0813239 74.50823875 -34.5140867 68.76088785 -31.1875 62.875 C-30.77435547 62.11574219 -30.36121094 61.35648438 -29.93554688 60.57421875 C-27.4179065 56.06651749 -24.70887157 52.27370737 -21.11791992 48.55493164 C-19.65374352 46.85349007 -19.65374352 46.85349007 -20.125 43.5625 C-20.41375 42.716875 -20.7025 41.87125 -21 41 C-20.01 40.34 -19.02 39.68 -18 39 C-18.33 36.36 -18.66 33.72 -19 31 C-17.906875 30.731875 -16.81375 30.46375 -15.6875 30.1875 C-13.16596408 29.08965434 -12.21415369 28.53794586 -11.18359375 25.94921875 C-10.78782512 24.12536194 -10.40066261 22.29962789 -10.01953125 20.47265625 C-7.87887351 13.18129712 -3.69388269 6.6056225 0 0 Z " fill="#75392C" transform="translate(129,108)"/>
<path d="M0 0 C0.66 0 1.32 0 2 0 C5.80465358 7.04303314 6.51017282 13.54431234 6.49584961 21.40185547 C6.58748604 27.1768464 8.14169934 31.03509464 11 36 C13.16589463 39.93123388 14.09036537 43.56126853 13 48 C8.56725498 54.11462255 -0.68537417 58.65445239 -8 60 C-9.58211573 60.06548492 -11.16670081 60.08578381 -12.75 60.0625 C-13.54921875 60.05347656 -14.3484375 60.04445312 -15.171875 60.03515625 C-15.77515625 60.02355469 -16.3784375 60.01195312 -17 60 C-17 59.01 -17 58.02 -17 57 C-15.94941406 56.78085938 -14.89882812 56.56171875 -13.81640625 56.3359375 C-1.88391808 53.82257873 -1.88391808 53.82257873 8 47 C9.20345597 43.62774906 9.08910076 41.42288812 8 38 C7.15944484 36.83244583 6.30937663 35.67171706 5.453125 34.515625 C2.210579 29.41172506 2.53069266 24.8772463 2.875 19 C3.23761428 11.80651674 3.01145622 6.61584165 0 0 Z " fill="#6D322A" transform="translate(222,120)"/>
<path d="M0 0 C1.65 0 3.3 0 5 0 C4.99777939 0.63449066 4.99555878 1.26898132 4.99327087 1.92269897 C4.97119955 8.50835611 4.95608563 15.09400278 4.94506836 21.6796875 C4.94003011 24.13965278 4.9331994 26.59961505 4.92456055 29.05957031 C4.91247277 32.58920025 4.90676671 36.11879069 4.90234375 39.6484375 C4.89718246 40.75367767 4.89202118 41.85891785 4.88670349 42.99765015 C4.88662796 44.01855743 4.88655243 45.03946472 4.88647461 46.09130859 C4.884254 46.99287689 4.88203339 47.89444519 4.87974548 48.82333374 C4.8580715 51.04713748 4.8580715 51.04713748 6 53 C5.34 53 4.68 53 4 53 C4 59.6 4 66.2 4 73 C6.475 72.01 6.475 72.01 9 71 C9 76.94 9 82.88 9 89 C8.34 89 7.68 89 7 89 C7 84.05 7 79.1 7 74 C5.02 74.495 5.02 74.495 3 75 C2.67 51.24 2.34 27.48 2 3 C1.67 17.52 1.34 32.04 1 47 C0.67 47 0.34 47 0 47 C0 31.49 0 15.98 0 0 Z " fill="#D9CAC8" transform="translate(224,43)"/>
<path d="M0 0 C5.44767139 1.03935836 9.21650645 4.43135331 12.33984375 8.9296875 C14.81052224 13.44900687 15.42608948 16.88692622 15 22 C15.639375 22.268125 16.27875 22.53625 16.9375 22.8125 C19 24 19 24 20 27 C11.85523385 27.61469933 11.85523385 27.61469933 9 25.5625 C8.02437007 23.06244831 7.84731347 21.39377147 7.6875 18.75 C7.20223401 12.36769737 3.37186491 8.37186491 -1 4 C-0.625 1.875 -0.625 1.875 0 0 Z " fill="#A67A6E" transform="translate(119,229)"/>
<path d="M0 0 C4.43404516 4.43404516 4.1219262 13.26858796 4.3125 19.3125 C4.15340003 26.58867202 3.68462536 36.58965274 -0.921875 42.44140625 C-3 44 -3 44 -6 44 C-5.96519531 45.72283203 -5.96519531 45.72283203 -5.9296875 47.48046875 C-5.79960048 56.89754915 -6.1657232 65.73035118 -8 75 C-8.99 75 -9.98 75 -11 75 C-10.86722656 74.16082031 -10.73445312 73.32164062 -10.59765625 72.45703125 C-8.9636235 61.32891038 -8.39929997 50.23396377 -8 39 C-6.02 39.66 -4.04 40.32 -2 41 C0.28164458 27.33050435 0.2149992 13.82610232 0 0 Z " fill="#6D342B" transform="translate(206,181)"/>
<path d="M0 0 C0.73919678 0.00418945 1.47839355 0.00837891 2.23999023 0.01269531 C12.22685983 0.21516824 21.17592518 2.36596726 29.875 7.3125 C27.875 8.3125 27.875 8.3125 25.66015625 7.60546875 C24.76167969 7.24066406 23.86320312 6.87585938 22.9375 6.5 C10.49588105 1.81819287 -2.01355478 0.48947147 -14.75 4.75390625 C-17.30461956 5.35474605 -18.67639558 5.16837793 -21.125 4.3125 C-21.125 3.9825 -21.125 3.6525 -21.125 3.3125 C-26.66039636 2.97980994 -30.24632768 3.91312007 -35.25 6.25 C-39.2268374 8.09048383 -42.77691685 9.66438949 -47.125 10.3125 C-46.19415029 12.08683812 -45.25505387 13.85685149 -44.3125 15.625 C-43.79042969 16.61113281 -43.26835938 17.59726563 -42.73046875 18.61328125 C-41.3530124 20.92915068 -40.12969409 22.54861001 -38.125 24.3125 C-38.455 25.3025 -38.785 26.2925 -39.125 27.3125 C-39.455 26.3225 -39.785 25.3325 -40.125 24.3125 C-41.115 23.9825 -42.105 23.6525 -43.125 23.3125 C-44.6953125 20.6953125 -44.6953125 20.6953125 -46.25 17.4375 C-46.76820312 16.36757812 -47.28640625 15.29765625 -47.8203125 14.1953125 C-49.125 11.3125 -49.125 11.3125 -50.125 8.3125 C-49.00480469 7.97476563 -47.88460937 7.63703125 -46.73046875 7.2890625 C-45.25773364 6.83879954 -43.78508169 6.38826447 -42.3125 5.9375 C-41.20551758 5.60492188 -41.20551758 5.60492188 -40.07617188 5.265625 C-39.36396484 5.04648438 -38.65175781 4.82734375 -37.91796875 4.6015625 C-36.93606567 4.30306396 -36.93606567 4.30306396 -35.93432617 3.99853516 C-33.83144864 3.27834292 -33.83144864 3.27834292 -31.125 1.3125 C-28.34765625 1.08203125 -28.34765625 1.08203125 -25.1875 1.125 C-24.14722656 1.13144531 -23.10695312 1.13789062 -22.03515625 1.14453125 C-19.125 1.3125 -19.125 1.3125 -17.18359375 1.94921875 C-11.93074155 2.87619267 -5.66347663 -0.044251 0 0 Z " fill="#C4ADA9" transform="translate(167.125,83.6875)"/>
<path d="M0 0 C1.32 0 2.64 0 4 0 C4 11.55 4 23.1 4 35 C2.68 35 1.36 35 0 35 C0 23.45 0 11.9 0 0 Z " fill="#B0918C" transform="translate(247,80)"/>
<path d="M0 0 C1.32 0.33 2.64 0.66 4 1 C4 8.92 4 16.84 4 25 C2.35 25 0.7 25 -1 25 C-1 21.04 -1 17.08 -1 13 C-1.66 13 -2.32 13 -3 13 C-3 18.94 -3 24.88 -3 31 C-3.66 31 -4.32 31 -5 31 C-5.11608726 27.72946483 -5.18720711 24.4594582 -5.25 21.1875 C-5.28351563 20.25873047 -5.31703125 19.32996094 -5.3515625 18.37304688 C-5.36445313 17.48037109 -5.37734375 16.58769531 -5.390625 15.66796875 C-5.41157227 14.84578857 -5.43251953 14.0236084 -5.45410156 13.17651367 C-4.83916001 10.22909218 -3.44296656 9.620746 -1 8 C-0.31149171 5.9683434 -0.31149171 5.9683434 -0.25 3.8125 C-0.1675 2.554375 -0.085 1.29625 0 0 Z " fill="#C9B4B1" transform="translate(239,101)"/>
<path d="M0 0 C2.375 0.3125 2.375 0.3125 5 1 C5.66 1.99 6.32 2.98 7 4 C5.68 3.67 4.36 3.34 3 3 C3.16081055 3.67546875 3.32162109 4.3509375 3.48730469 5.046875 C4.44456887 10.56071667 4.22554476 16.17892853 4.24023438 21.76220703 C4.24984974 23.96556687 4.28086419 26.16795597 4.3125 28.37109375 C4.37787704 37.36879952 3.5082565 45.29865768 1 54 C0.67 54 0.34 54 0 54 C-0.12540928 47.60412677 -0.12540928 47.60412677 0.49560547 44.61254883 C1.03671117 41.80985178 1.12946453 39.23990798 1.1328125 36.38671875 C1.13474609 35.31019043 1.13667969 34.23366211 1.13867188 33.12451172 C1.13416016 31.99029785 1.12964844 30.85608398 1.125 29.6875 C1.12306641 28.53008301 1.12113281 27.37266602 1.11914062 26.18017578 C1.07519534 17.41919406 0.73848409 8.72993696 0 0 Z " fill="#8F5039" transform="translate(192,202)"/>
<path d="M0 0 C1.32 0 2.64 0 4 0 C4 8.25 4 16.5 4 25 C3.67 25 3.34 25 3 25 C3 17.41 3 9.82 3 2 C2.34 2 1.68 2 1 2 C1 14.54 1 27.08 1 40 C1.66 40 2.32 40 3 40 C3 38.68 3 37.36 3 36 C3.66 36 4.32 36 5 36 C8 41.75 8 41.75 8 44 C8.66 44 9.32 44 10 44 C10.061875 44.763125 10.12375 45.52625 10.1875 46.3125 C10.76935262 49.23051809 10.76935262 49.23051809 13.5625 50.8125 C14.366875 51.204375 15.17125 51.59625 16 52 C15.67 53.32 15.34 54.64 15 56 C14.7525 55.38125 14.505 54.7625 14.25 54.125 C13.1935445 51.86014871 13.1935445 51.86014871 11.04296875 51.12109375 C8.49191197 49.72118305 8.11271811 48.60418285 7.0625 45.9375 C6.14429429 43.79926511 6.14429429 43.79926511 5 42 C2.3852733 40.87184635 2.3852733 40.87184635 0 41 C0 40.01 0 39.02 0 38 C-0.99 38 -1.98 38 -3 38 C-2.67 36.35 -2.34 34.7 -2 33 C-1.67 33 -1.34 33 -1 33 C-0.67 22.11 -0.34 11.22 0 0 Z " fill="#CDB6B2" transform="translate(204,62)"/>
<path d="M0 0 C0.33 0 0.66 0 1 0 C1.91457003 5.56157448 2.32086397 9.675665 0 15 C-1.65 14.67 -3.3 14.34 -5 14 C-5.04898438 15.30453125 -5.09796875 16.6090625 -5.1484375 17.953125 C-6.06842275 40.20526825 -6.06842275 40.20526825 -9 49 C-9.66 49 -10.32 49 -11 49 C-10.86722656 48.34 -10.73445312 47.68 -10.59765625 47 C-9.02208114 38.16757896 -8.63032614 29.45198623 -8.42993164 20.4921875 C-8.27211898 14.97008556 -7.82538871 10.22591122 -6 5 C-4.79371992 7.33214148 -3.8345262 9.49642139 -3 12 C-2.34 12.33 -1.68 12.66 -1 13 C-0.67 8.71 -0.34 4.42 0 0 Z " fill="#CBB7B4" transform="translate(204,207)"/>
<path d="M0 0 C1.98 0.495 1.98 0.495 4 1 C4 8.59 4 16.18 4 24 C2.35 24.33 0.7 24.66 -1 25 C-0.67 16.75 -0.34 8.5 0 0 Z " fill="#723A31" transform="translate(221,93)"/>
<path d="M0 0 C0.96099609 0.00902344 1.92199219 0.01804688 2.91210938 0.02734375 C5.25417805 0.05064792 7.59569792 0.08335942 9.9375 0.125 C9.9375 1.445 9.9375 2.765 9.9375 4.125 C9.33800537 4.11452637 8.73851074 4.10405273 8.12084961 4.09326172 C5.3722767 4.05137163 2.62377126 4.02556997 -0.125 4 C-1.53942383 3.97486328 -1.53942383 3.97486328 -2.98242188 3.94921875 C-8.45968309 3.91104968 -12.87219262 4.39489754 -18.0625 6.125 C-21 6.25 -21 6.25 -23.0625 6.125 C-21.88471321 3.76942643 -20.79760526 2.38937996 -18.28125 1.484375 C-12.13071828 0.10273382 -6.28785525 -0.11376774 0 0 Z " fill="#713326" transform="translate(68.0625,214.875)"/>
<path d="M0 0 C2.9655648 1.37686937 5.39134755 3.04351066 8 5 C9.31836295 5.69580267 10.64791086 6.37224433 12 7 C5.375 6.375 5.375 6.375 2 3 C2 5.97 2 8.94 2 12 C0.91203125 12.04898438 -0.1759375 12.09796875 -1.296875 12.1484375 C-9.99086305 12.57773352 -18.4419184 13.30157533 -27 15 C-26 13 -26 13 -23.98828125 12.1484375 C-16.23788012 9.90817557 -9.03457377 9.68330877 -1 10 C-1.01160156 9.36191406 -1.02320312 8.72382813 -1.03515625 8.06640625 C-1.04417969 7.24011719 -1.05320312 6.41382813 -1.0625 5.5625 C-1.07410156 4.73878906 -1.08570312 3.91507813 -1.09765625 3.06640625 C-1 1 -1 1 0 0 Z " fill="#C5AEAA" transform="translate(72,203)"/>
<path d="M0 0 C0.33 0 0.66 0 1 0 C1.33 8.58 1.66 17.16 2 26 C2.66 25.67 3.32 25.34 4 25 C4 26.65 4 28.3 4 30 C2.68 30 1.36 30 0 30 C-0.33 28.68 -0.66 27.36 -1 26 C-1.20858383 28.93886236 -1.20858383 28.93886236 -0.015625 31.14453125 C1.36905002 35.03759833 1.29171561 38.58894083 1.25 42.6875 C1.25773438 43.45900391 1.26546875 44.23050781 1.2734375 45.02539062 C1.25345092 50.74654908 1.25345092 50.74654908 -1 53 C-0.95359375 51.97261719 -0.9071875 50.94523437 -0.859375 49.88671875 C-0.61282896 41.92212589 -0.88494622 35.48668611 -4.125 28.0390625 C-5 26 -5 26 -5 24 C-3.68 23.67 -2.36 23.34 -1 23 C-0.67 15.41 -0.34 7.82 0 0 Z " fill="#BA9F9B" transform="translate(225,94)"/>
<path d="M0 0 C0.66 0 1.32 0 2 0 C2.6875 1.6875 2.6875 1.6875 3 4 C0.40867047 9.65624687 -3.21489852 10.83783816 -8.76953125 12.99609375 C-13.17065466 14.36379474 -17.40562209 14.88818992 -22 15 C-19.51998292 12.51998292 -17.53591872 12.12415824 -14.1875 11.125 C-7.0986638 8.82706386 -3.75398819 6.43540832 0 0 Z " fill="#F4E9E2" transform="translate(226,159)"/>
<path d="M0 0 C1.32 0 2.64 0 4 0 C4 6.93 4 13.86 4 21 C2.68 20.67 1.36 20.34 0 20 C0 13.4 0 6.8 0 0 Z " fill="#723A31" transform="translate(214,91)"/>
<path d="M0 0 C0.66 0.33 1.32 0.66 2 1 C1.48050781 1.38929688 0.96101563 1.77859375 0.42578125 2.1796875 C-6.52739535 7.75765172 -9.79361986 13.92100854 -12.3125 22.375 C-14.3462611 26.74382014 -16.05712803 27.60946613 -20.35546875 29.40625 C-21.16951172 29.70015625 -21.16951172 29.70015625 -22 30 C-21.34 31.65 -20.68 33.3 -20 35 C-21.375 36.5 -21.375 36.5 -23 38 C-23.66 38 -24.32 38 -25 38 C-24.649375 37.278125 -24.29875 36.55625 -23.9375 35.8125 C-22.89590983 32.6877295 -23.10903428 31.11838004 -24 28 C-22.71086513 27.32845067 -21.41859796 26.66291141 -20.125 26 C-19.40570312 25.62875 -18.68640625 25.2575 -17.9453125 24.875 C-16 24 -16 24 -14 24 C-13.95875 22.88625 -13.9175 21.7725 -13.875 20.625 C-12.93635873 13.27231008 -8.65331618 7.13923996 -3.125 2.375 C-2.09375 1.59125 -1.0625 0.8075 0 0 Z " fill="#C2A9A6" transform="translate(43,218)"/>
<path d="M0 0 C0.33 0 0.66 0 1 0 C0.85820962 2.22942748 0.71140302 4.45853628 0.5625 6.6875 C0.48128906 7.92886719 0.40007812 9.17023438 0.31640625 10.44921875 C0.05508683 13.38180337 -0.34798379 16.13441617 -1 19 C-1.99 18.67 -2.98 18.34 -4 18 C-4.94921875 16.0390625 -4.94921875 16.0390625 -5.6875 13.625 C-5.93886719 12.83351562 -6.19023437 12.04203125 -6.44921875 11.2265625 C-7 9 -7 9 -7 6 C-5.68 6 -4.36 6 -3 6 C-2.690625 5.195625 -2.38125 4.39125 -2.0625 3.5625 C-1 1 -1 1 0 0 Z " fill="#723B32" transform="translate(204,201)"/>
<path d="M0 0 C1.51400391 0.01740234 1.51400391 0.01740234 3.05859375 0.03515625 C4.07050781 0.04417969 5.08242187 0.05320313 6.125 0.0625 C7.29869141 0.07990234 7.29869141 0.07990234 8.49609375 0.09765625 C5.3084701 2.22273869 3.23097152 2.59967255 -0.50390625 3.09765625 C-0.35953125 3.84789062 -0.21515625 4.598125 -0.06640625 5.37109375 C3.07047576 22.66751259 3.07047576 22.66751259 0.375 26.828125 C-1.00390625 28.22265625 -1.00390625 28.22265625 -3.50390625 30.09765625 C-2.62890625 26.22265625 -2.62890625 26.22265625 -1.50390625 25.09765625 C-0.8342311 17.94926338 -2.00516263 10.94296882 -3.1640625 3.90625 C-3.27621094 2.97941406 -3.38835937 2.05257812 -3.50390625 1.09765625 C-2.50390625 0.09765625 -2.50390625 0.09765625 0 0 Z " fill="#8A4B35" transform="translate(203.50390625,173.90234375)"/>
<path d="M0 0 C1.52367187 0.48726563 1.52367187 0.48726563 3.078125 0.984375 C5.96736302 2.35296143 7.09816622 3.55728465 8.75 6.25 C5.20576389 5.79561075 2.04869628 5.02727447 -1.28125 3.78125 C-6.57217959 1.9873945 -11.76603744 1.48321289 -17.3125 1.0625 C-18.27349609 0.98064453 -19.23449219 0.89878906 -20.22460938 0.81445312 C-22.56577773 0.61644386 -24.90727632 0.42848408 -27.25 0.25 C-27.25 -0.08 -27.25 -0.41 -27.25 -0.75 C-25.06274749 -0.91988369 -22.87518299 -1.08575269 -20.6875 -1.25 C-18.86025391 -1.38921875 -18.86025391 -1.38921875 -16.99609375 -1.53125 C-10.89219152 -1.88768225 -5.84538687 -1.94846229 0 0 Z " fill="#733B32" transform="translate(188.25,83.75)"/>
<path d="M0 0 C1.98 0.99 1.98 0.99 4 2 C4 7.28 4 12.56 4 18 C2.02 18.99 2.02 18.99 0 20 C0 13.4 0 6.8 0 0 Z " fill="#743C33" transform="translate(228,96)"/>
<path d="M0 0 C0.66 0.33 1.32 0.66 2 1 C1.45730469 1.98097656 0.91460937 2.96195312 0.35546875 3.97265625 C-4.61370675 13.24474907 -7.55893365 21.552269 -9 32 C-9.66 31.67 -10.32 31.34 -11 31 C-11.33 31 -11.66 31 -12 31 C-14 31 -16 31 -18 31 C-18 30.67 -18 30.34 -18 30 C-17.071875 29.896875 -16.14375 29.79375 -15.1875 29.6875 C-11.90004252 28.39685735 -11.90004252 28.39685735 -11.25 26.015625 C-10.84952839 24.18013013 -10.45133377 22.34413782 -10.0546875 20.5078125 C-7.86065576 13.21062545 -3.70484935 6.62523374 0 0 Z " fill="#7E4331" transform="translate(129,108)"/>
<path d="M0 0 C1.72526042 1.07421875 3.45052083 2.1484375 5.17578125 3.22265625 C7.17133075 4.31112074 7.17133075 4.31112074 10 3 C10.33 2.01 10.66 1.02 11 0 C11.66 2.31 12.32 4.62 13 7 C10.03 7 7.06 7 4 7 C4 7.99 4 8.98 4 10 C1.29120665 11.35439668 -1.00933268 11.06501451 -4 11 C-4 10.67 -4 10.34 -4 10 C-2.35 10 -0.7 10 1 10 C0.67 9.34 0.34 8.68 0 8 C-0.13415472 5.3276379 -0.04318541 2.67749512 0 0 Z " fill="#844D40" transform="translate(73,205)"/>
<path d="M0 0 C4.77137676 1.83748764 5.81292708 4.9637133 7.8984375 9.390625 C9.24152703 12.57212786 10.17905352 15.64780188 11 19 C11.33 19.99 11.66 20.98 12 22 C10.125 21.6875 10.125 21.6875 8 21 C5.94914961 17.92372442 5.8027494 17.21961357 5.6875 13.75 C5.24796212 8.56852464 3.19435464 6.01341993 0 2 C0 1.34 0 0.68 0 0 Z " fill="#7E3F2F" transform="translate(121,234)"/>
<path d="M0 0 C0.33 0 0.66 0 1 0 C1.2071352 10.89761308 1.15729044 21.27133239 -1 32 C-1.99 32 -2.98 32 -4 32 C-3.69112547 29.56199034 -3.37805338 27.12464633 -3.0625 24.6875 C-2.97548828 23.99720703 -2.88847656 23.30691406 -2.79882812 22.59570312 C-2.40789865 19.59857712 -1.9584996 16.87549881 -1 14 C-0.77439324 11.60745424 -0.59151405 9.21071877 -0.4375 6.8125 C-0.35371094 5.54019531 -0.26992187 4.26789063 -0.18359375 2.95703125 C-0.12300781 1.98121094 -0.06242188 1.00539062 0 0 Z " fill="#672C24" transform="translate(199,224)"/>
<path d="M0 0 C0.33 0 0.66 0 1 0 C1 14.85 1 29.7 1 45 C2.32 45.33 3.64 45.66 5 46 C5 46.66 5 47.32 5 48 C3.35 48 1.7 48 0 48 C0 32.16 0 16.32 0 0 Z " fill="#A37F79" transform="translate(220,44)"/>
<path d="M0 0 C0.66 1.32 1.32 2.64 2 4 C0.7934375 5.051875 0.7934375 5.051875 -0.4375 6.125 C-3.29094341 9.32642431 -3.45051421 10.87885657 -4 15 C-4.99 15.66 -5.98 16.32 -7 17 C-7.99 16.67 -8.98 16.34 -10 16 C-9.62875 15.4225 -9.2575 14.845 -8.875 14.25 C-7.70833333 12 -7.70833333 12 -8.875 9.75 C-9.431875 8.88375 -9.431875 8.88375 -10 8 C-8.88625 7.525625 -7.7725 7.05125 -6.625 6.5625 C-4.73289006 5.74693537 -2.84287291 4.92143645 -1 4 C-0.34786708 1.97536745 -0.34786708 1.97536745 0 0 Z " fill="#83524A" transform="translate(30,239)"/>
<path d="M0 0 C0.66 0.33 1.32 0.66 2 1 C1.21625 1.86625 0.4325 2.7325 -0.375 3.625 C-2.83386728 6.55056447 -4.02450104 9.27536762 -5 13 C-6.98 13 -8.96 13 -11 13 C-11.33 14.65 -11.66 16.3 -12 18 C-13.32 18.33 -14.64 18.66 -16 19 C-14.51887086 16.17640062 -13.01271839 13.48053942 -11 11 C-8.1875 10.5 -8.1875 10.5 -6 11 C-5.9071875 9.6696875 -5.9071875 9.6696875 -5.8125 8.3125 C-4.81828945 4.25918008 -3.09898876 2.70168251 0 0 Z " fill="#894B31" transform="translate(148,88)"/>
<path d="M0 0 C0.66 0.66 1.32 1.32 2 2 C1.8125 4.5 1.8125 4.5 1 7 C-2 9 -2 9 -5 9 C-5.33 13.29 -5.66 17.58 -6 22 C-6.33 22 -6.66 22 -7 22 C-7 16.06 -7 10.12 -7 4 C-5.02 4.66 -3.04 5.32 -1 6 C-0.67 4.02 -0.34 2.04 0 0 Z " fill="#763F37" transform="translate(205,216)"/>
<path d="M0 0 C0.66 0 1.32 0 2 0 C4.32590854 3.63423209 4.16265833 6.77088331 4 11 C4.639375 11.268125 5.27875 11.53625 5.9375 11.8125 C8 13 8 13 9 16 C5 16 5 16 3.375 14.5 C0.82130728 9.85692233 0 5.26714075 0 0 Z " fill="#85422C" transform="translate(130,240)"/>
<path d="M0 0 C0.99 0 1.98 0 3 0 C3 3.63 3 7.26 3 11 C2.34 10.67 1.68 10.34 1 10 C0.67 10.66 0.34 11.32 0 12 C0.99 12 1.98 12 3 12 C3 12.66 3 13.32 3 14 C1.68 14 0.36 14 -1 14 C-1.02694851 12.04174127 -1.04637218 10.08337774 -1.0625 8.125 C-1.07410156 7.03445312 -1.08570313 5.94390625 -1.09765625 4.8203125 C-1 2 -1 2 0 0 Z " fill="#77453E" transform="translate(201,88)"/>
<path d="M0 0 C0 5.94 0 11.88 0 18 C-0.66 18 -1.32 18 -2 18 C-2 13.05 -2 8.1 -2 3 C-3.32 3.33 -4.64 3.66 -6 4 C-6 3.34 -6 2.68 -6 2 C-2.25 0 -2.25 0 0 0 Z " fill="#CBB7B4" transform="translate(233,114)"/>
<path d="M0 0 C0.66 0.33 1.32 0.66 2 1 C1.525625 1.7425 1.05125 2.485 0.5625 3.25 C-0.77869327 5.61050015 -1.512312 7.36648477 -2 10 C-2.763125 10.061875 -3.52625 10.12375 -4.3125 10.1875 C-7.86874941 11.26264517 -8.22864371 12.84236488 -10 16 C-12.08984375 17.16015625 -12.08984375 17.16015625 -14 18 C-13.0980639 16.51180543 -12.17785871 15.03467187 -11.25 13.5625 C-10.48429688 12.32693359 -10.48429688 12.32693359 -9.703125 11.06640625 C-7.77087991 8.72200796 -6.87925201 8.5601892 -4 8 C-2.81608777 5.62374655 -2.81608777 5.62374655 -2 3 C-1.34 2.01 -0.68 1.02 0 0 Z " fill="#C1A9A6" transform="translate(144,89)"/>
<path d="M0 0 C0.33 0 0.66 0 1 0 C1 2.31 1 4.62 1 7 C-1.31 7.33 -3.62 7.66 -6 8 C-6 9.32 -6 10.64 -6 12 C-6.99 11.67 -7.98 11.34 -9 11 C-8.125 6.125 -8.125 6.125 -7 5 C-4.66702567 4.95907063 -2.33294775 4.95758277 0 5 C0 3.35 0 1.7 0 0 Z " fill="#6A2F26" transform="translate(115,129)"/>
<path d="M0 0 C1.32 0.33 2.64 0.66 4 1 C4 3.64 4 6.28 4 9 C2.02 9.99 2.02 9.99 0 11 C0 7.37 0 3.74 0 0 Z " fill="#753D35" transform="translate(235,100)"/>
<path d="M0 0 C0.33 0 0.66 0 1 0 C1.91457003 5.56157448 2.32086397 9.675665 0 15 C-1.65 14.67 -3.3 14.34 -5 14 C-5.33 12.02 -5.66 10.04 -6 8 C-5.01 8.495 -5.01 8.495 -4 9 C-3.67 9.99 -3.34 10.98 -3 12 C-2.34 12.33 -1.68 12.66 -1 13 C-0.67 8.71 -0.34 4.42 0 0 Z " fill="#D1BFBC" transform="translate(204,207)"/>
<path d="M0 0 C-1 3 -1 3 -2.85546875 3.94921875 C-7.37075277 5.37868052 -11.19984755 6.3692425 -16 6 C-13.50063756 3.50063756 -11.35191992 2.96276247 -8 1.875 C-6.9275 1.52179688 -5.855 1.16859375 -4.75 0.8046875 C-2 0 -2 0 0 0 Z " fill="#F9EFE7" transform="translate(220,168)"/>
<path d="M0 0 C0.99 0 1.98 0 3 0 C3 4.29 3 8.58 3 13 C-0.22430866 8.16353702 -0.09242903 5.73060016 0 0 Z " fill="#753D35" transform="translate(208,90)"/>
<path d="M0 0 C0 0.66 0 1.32 0 2 C-1.74635165 2.53293835 -3.49727652 3.05090663 -5.25 3.5625 C-6.22453125 3.85253906 -7.1990625 4.14257812 -8.203125 4.44140625 C-10.96243932 4.99249836 -12.3912824 4.93789609 -15 4 C-15 3.01 -15 2.02 -15 1 C-13.7315625 1.309375 -13.7315625 1.309375 -12.4375 1.625 C-7.8479773 2.1256752 -4.42397636 0 0 0 Z " fill="#B39590" transform="translate(161,84)"/>
<path d="M0 0 C1.32 0 2.64 0 4 0 C4.625 3.375 4.625 3.375 5 7 C4.34 7.66 3.68 8.32 3 9 C2.01 8.67 1.02 8.34 0 8 C0.556875 7.13375 0.556875 7.13375 1.125 6.25 C2.29166667 4 2.29166667 4 1.125 1.75 C0.75375 1.1725 0.3825 0.595 0 0 Z " fill="#713830" transform="translate(20,247)"/>
<path d="M0 0 C0.33 0 0.66 0 1 0 C1.22126178 2.45779976 1.42750395 4.91527648 1.625 7.375 C1.68945312 8.07367188 1.75390625 8.77234375 1.8203125 9.4921875 C1.96119739 11.32369111 1.98761659 13.16312748 2 15 C1.34 15.66 0.68 16.32 0 17 C-1.22329074 13.33012779 -0.88021006 10.66032178 -0.5625 6.8125 C-0.46066406 5.54019531 -0.35882813 4.26789063 -0.25390625 2.95703125 C-0.17011719 1.98121094 -0.08632812 1.00539062 0 0 Z " fill="#753E36" transform="translate(226,131)"/>
<path d="M0 0 C0.66 0.33 1.32 0.66 2 1 C0.76302083 2.46484375 -0.47395833 3.9296875 -1.7109375 5.39453125 C-2.89201099 6.8655046 -3.95358529 8.43037794 -5 10 C-4.50769231 3.47692308 -4.50769231 3.47692308 -1.9375 1.0625 C-0.9784375 0.5365625 -0.9784375 0.5365625 0 0 Z " fill="#A85D35" transform="translate(148,88)"/>
<path d="M0 0 C0.66 0.99 1.32 1.98 2 3 C1.125 5.6875 1.125 5.6875 0 8 C0.99 8 1.98 8 3 8 C3 8.66 3 9.32 3 10 C1.68 10 0.36 10 -1 10 C-1.02689216 8.52093108 -1.04634621 7.04172517 -1.0625 5.5625 C-1.07410156 4.73878906 -1.08570313 3.91507812 -1.09765625 3.06640625 C-1 1 -1 1 0 0 Z " fill="#9A624E" transform="translate(201,92)"/>
<path d="M0 0 C1.485 0.99 1.485 0.99 3 2 C3.1875 5.625 3.1875 5.625 3 9 C2.01 9 1.02 9 0 9 C0 6.03 0 3.06 0 0 Z " fill="#7C4030" transform="translate(85,202)"/>
<path d="M0 0 C0.33 0.66 0.66 1.32 1 2 C0.06421005 4.35981813 -0.93347808 6.69631264 -2 9 C-2.99 9 -3.98 9 -5 9 C-3.90931332 5.22454612 -3.0916909 2.52956528 0 0 Z " fill="#E4D1C3" transform="translate(42,225)"/>
<path d="M0 0 C1 3 1 3 -0.4375 6.1875 C-1.2109375 7.5796875 -1.2109375 7.5796875 -2 9 C-2.66 8.67 -3.32 8.34 -4 8 C-2.87548273 5.0280615 -1.77706209 2.66559313 0 0 Z " fill="#632B23" transform="translate(246,100)"/>
<path d="M0 0 C0.66 0 1.32 0 2 0 C3.28317892 3.84953676 3.06643637 6.94738135 3 11 C0.87953208 7.46588679 0.46800711 4.05606165 0 0 Z " fill="#73362A" transform="translate(130,240)"/>
<path d="M0 0 C2.375 0.3125 2.375 0.3125 5 1 C5.66 1.99 6.32 2.98 7 4 C4.525 3.01 4.525 3.01 2 2 C1.67 2.99 1.34 3.98 1 5 C0.67 3.35 0.34 1.7 0 0 Z " fill="#8A4932" transform="translate(192,202)"/>
<path d="M0 0 C-3.4019487 2.09350689 -6.05272412 2.17942163 -10 2 C-6.64608848 -1.35391152 -4.35183427 -1.05855428 0 0 Z " fill="#E3CEC2" transform="translate(214,172)"/>
</svg>
